<?xml version="1.0" encoding="UTF-8"?><svg xmlns="http://www.w3.org/2000/svg" xmlns:xlink="http://www.w3.org/1999/xlink" contentScriptType="text/ecmascript" width="375pt" zoomAndPan="magnify" contentStyleType="text/css" viewBox="0 0 375 374.999991" height="374.999991pt" preserveAspectRatio="xMidYMid meet" version="1.2"><defs><g/><clipPath xml:id="clip1" id="clip1"><path d="M 150 96 L 331.328125 96 L 331.328125 189 L 150 189 Z M 150 96 "/></clipPath><clipPath xml:id="clip2" id="clip2"><path d="M 131 53.980469 L 256 53.980469 L 256 176 L 131 176 Z M 131 53.980469 "/></clipPath><clipPath xml:id="clip3" id="clip3"><path d="M 43.328125 94 L 294 94 L 294 220.480469 L 43.328125 220.480469 Z M 43.328125 94 "/></clipPath></defs><g xml:id="surface1" id="surface1"><g clip-rule="nonzero" clip-path="url(#clip1)"><path style=" stroke:none;fill-rule:nonzero;fill:rgb(0%,16.079712%,39.99939%);fill-opacity:1;" d="M 171.148438 146.015625 L 171.222656 146.015625 C 174.878906 131.199219 188.28125 120.125 204.195312 120.125 C 208.761719 120.125 213.101562 121.039062 217.136719 122.644531 C 224.445312 107.140625 240.207031 96.445312 258.480469 96.445312 C 281.554688 96.445312 300.589844 113.554688 303.785156 135.855469 C 304.242188 135.855469 304.777344 135.78125 305.234375 135.78125 C 319.699219 135.78125 331.347656 147.542969 331.347656 161.976562 C 331.347656 176.414062 319.625 188.175781 305.234375 188.175781 L 171.222656 188.175781 C 159.574219 188.175781 150.132812 178.703125 150.132812 167.019531 C 150.132812 155.332031 159.5 146.015625 171.148438 146.015625 Z M 171.148438 146.015625 "/></g><g clip-rule="nonzero" clip-path="url(#clip2)"><path style=" stroke:none;fill-rule:nonzero;fill:rgb(100%,84.309387%,45.098877%);fill-opacity:1;" d="M 193.535156 53.980469 C 227.644531 53.980469 255.207031 81.25 255.207031 114.929688 C 255.207031 148.613281 227.570312 175.878906 193.535156 175.878906 C 159.5 175.878906 131.859375 148.613281 131.859375 114.929688 C 131.859375 81.25 159.421875 53.980469 193.535156 53.980469 Z M 193.535156 53.980469 "/></g><g clip-rule="nonzero" clip-path="url(#clip3)"><path style=" stroke:none;fill-rule:nonzero;fill:rgb(85.099792%,85.099792%,85.099792%);fill-opacity:1;" d="M 293.125 191.382812 C 293.125 207.421875 280.105469 220.480469 264.117188 220.480469 L 79.398438 220.480469 C 59.527344 220.480469 43.382812 204.289062 43.382812 184.355469 C 43.382812 164.421875 59.527344 148.230469 79.398438 148.230469 C 80.082031 148.230469 80.769531 148.304688 81.378906 148.304688 C 85.71875 117.601562 111.988281 94.003906 143.738281 94.003906 C 168.863281 94.003906 190.5625 108.742188 200.691406 130.128906 C 206.171875 127.835938 212.1875 126.617188 218.507812 126.617188 C 240.4375 126.617188 258.863281 141.816406 263.886719 162.285156 L 264.039062 162.285156 C 280.105469 162.285156 293.125 175.265625 293.125 191.382812 Z M 293.125 191.382812 "/></g><g style="fill:rgb(0%,16.079712%,39.99939%);fill-opacity:1;"><g transform="translate(13.502831, 294.616949)"><path style="stroke:none;" d="M 15.09375 0.6875 C 12.75 0.6875 10.523438 0.28125 8.421875 -0.53125 C 6.316406 -1.34375 4.601562 -2.535156 3.28125 -4.109375 L 6.328125 -8.234375 C 7.597656 -7.015625 8.929688 -6.070312 10.328125 -5.40625 C 11.722656 -4.75 13.109375 -4.421875 14.484375 -4.421875 C 16.160156 -4.421875 17.53125 -4.75 18.59375 -5.40625 C 19.664062 -6.070312 20.203125 -7.085938 20.203125 -8.453125 C 20.203125 -9.523438 19.867188 -10.390625 19.203125 -11.046875 C 18.546875 -11.710938 17.796875 -12.195312 16.953125 -12.5 C 16.117188 -12.800781 14.710938 -13.257812 12.734375 -13.875 C 7.347656 -15.601562 4.65625 -18.675781 4.65625 -23.09375 C 4.65625 -25.738281 5.628906 -28 7.578125 -29.875 C 9.535156 -31.757812 12.269531 -32.703125 15.78125 -32.703125 C 18.007812 -32.703125 19.988281 -32.421875 21.71875 -31.859375 C 23.445312 -31.296875 25.050781 -30.40625 26.53125 -29.1875 L 23.703125 -24.84375 C 22.890625 -25.707031 21.859375 -26.394531 20.609375 -26.90625 C 19.367188 -27.414062 18.191406 -27.695312 17.078125 -27.75 C 15.648438 -27.75 14.425781 -27.40625 13.40625 -26.71875 C 12.394531 -26.03125 11.890625 -25.101562 11.890625 -23.9375 C 11.890625 -22.96875 12.21875 -22.164062 12.875 -21.53125 C 13.539062 -20.894531 14.226562 -20.4375 14.9375 -20.15625 C 15.644531 -19.875 17.039062 -19.40625 19.125 -18.75 C 21.71875 -17.882812 23.738281 -16.765625 25.1875 -15.390625 C 26.632812 -14.023438 27.359375 -12.171875 27.359375 -9.828125 C 27.359375 -6.785156 26.289062 -4.269531 24.15625 -2.28125 C 22.019531 -0.300781 19 0.6875 15.09375 0.6875 Z M 15.09375 0.6875 "/></g></g><g style="fill:rgb(0%,16.079712%,39.99939%);fill-opacity:1;"><g transform="translate(51.990466, 294.616949)"><path style="stroke:none;" d="M 17.375 -15.171875 L 13.265625 -11.8125 L 13.265625 0 L 6.171875 0 L 6.171875 -59.0625 L 13.265625 -59.0625 L 13.265625 -19.203125 L 29.578125 -32.3125 L 33.921875 -28.5 L 22.25 -19.125 L 35.4375 0 L 27.140625 0 Z M 17.375 -15.171875 "/></g></g><g style="fill:rgb(0%,16.079712%,39.99939%);fill-opacity:1;"><g transform="translate(97.41304, 294.616949)"><path style="stroke:none;" d="M 36.203125 -31.546875 L 15.859375 15.171875 L 8.84375 15.171875 L 16.078125 -1.0625 L 1.453125 -31.546875 L 9.453125 -31.546875 L 19.671875 -9.0625 L 29.65625 -31.546875 Z M 36.203125 -31.546875 "/></g></g><g style="fill:rgb(0%,16.079712%,39.99939%);fill-opacity:1;"><g transform="translate(142.454571, 294.616949)"><path style="stroke:none;" d="M 16.390625 -45.421875 L 16.390625 -31.484375 L 25 -31.484375 L 25 -25.84375 L 16.390625 -25.84375 L 16.390625 0 L 9.21875 0 L 9.21875 -25.84375 L 3.4375 -25.84375 L 3.4375 -31.484375 L 9.21875 -31.484375 L 9.21875 -45.421875 Z M 16.390625 -45.421875 "/></g></g><g style="fill:rgb(0%,16.079712%,39.99939%);fill-opacity:1;"><g transform="translate(177.284215, 294.616949)"><path style="stroke:none;" d="M 35.515625 -31.546875 L 35.515625 0 L 29.109375 0 L 28.65625 -6.015625 C 27.59375 -3.878906 25.941406 -2.140625 23.703125 -0.796875 C 21.460938 0.546875 18.972656 1.21875 16.234375 1.21875 C 13.335938 1.21875 10.960938 0.34375 9.109375 -1.40625 C 7.253906 -3.164062 6.273438 -5.441406 6.171875 -8.234375 L 6.171875 -31.546875 L 13.265625 -31.546875 L 13.265625 -10.75 C 13.367188 -8.96875 13.890625 -7.554688 14.828125 -6.515625 C 15.765625 -5.472656 17.175781 -4.925781 19.0625 -4.875 C 20.78125 -4.875 22.351562 -5.394531 23.78125 -6.4375 C 25.207031 -7.476562 26.335938 -8.910156 27.171875 -10.734375 C 28.003906 -12.566406 28.421875 -14.601562 28.421875 -16.84375 L 28.421875 -31.546875 Z M 35.515625 -31.546875 "/></g></g><g style="fill:rgb(0%,16.079712%,39.99939%);fill-opacity:1;"><g transform="translate(226.36479, 294.616949)"><path style="stroke:none;" d="M 25.765625 -32.78125 C 28.710938 -32.78125 31.148438 -31.898438 33.078125 -30.140625 C 35.003906 -28.390625 35.992188 -26.117188 36.046875 -23.328125 L 36.046875 0 L 28.890625 0 L 28.890625 -20.890625 C 28.785156 -22.660156 28.25 -24.050781 27.28125 -25.0625 C 26.320312 -26.082031 24.875 -26.617188 22.9375 -26.671875 C 20.144531 -26.671875 17.832031 -25.550781 16 -23.3125 C 14.175781 -21.082031 13.265625 -18.238281 13.265625 -14.78125 L 13.265625 0 L 6.171875 0 L 6.171875 -31.546875 L 12.578125 -31.546875 L 13.03125 -25.453125 C 14.144531 -27.742188 15.820312 -29.535156 18.0625 -30.828125 C 20.300781 -32.128906 22.867188 -32.78125 25.765625 -32.78125 Z M 25.765625 -32.78125 "/></g></g><g style="fill:rgb(0%,16.079712%,39.99939%);fill-opacity:1;"><g transform="translate(275.902589, 294.616949)"><path style="stroke:none;" d="M 20.953125 -5.328125 C 23.597656 -5.328125 26.164062 -6.242188 28.65625 -8.078125 L 31.9375 -2.8125 C 30.257812 -1.695312 28.441406 -0.820312 26.484375 -0.1875 C 24.523438 0.445312 22.632812 0.765625 20.8125 0.765625 C 17.300781 0.765625 14.238281 0.0390625 11.625 -1.40625 C 9.007812 -2.851562 6.988281 -4.847656 5.5625 -7.390625 C 4.144531 -9.929688 3.4375 -12.800781 3.4375 -16 C 3.4375 -19.101562 4.207031 -21.9375 5.75 -24.5 C 7.300781 -27.070312 9.421875 -29.101562 12.109375 -30.59375 C 14.804688 -32.09375 17.753906 -32.84375 20.953125 -32.84375 C 25.078125 -32.84375 28.519531 -31.632812 31.28125 -29.21875 C 34.050781 -26.8125 35.945312 -23.445312 36.96875 -19.125 L 11.96875 -10.359375 C 12.882812 -8.785156 14.113281 -7.550781 15.65625 -6.65625 C 17.207031 -5.769531 18.972656 -5.328125 20.953125 -5.328125 Z M 20.421875 -27.203125 C 17.523438 -27.203125 15.132812 -26.1875 13.25 -24.15625 C 11.375 -22.125 10.4375 -19.535156 10.4375 -16.390625 C 10.4375 -15.628906 10.460938 -15.046875 10.515625 -14.640625 L 28.890625 -21.421875 C 28.128906 -23.148438 27.046875 -24.546875 25.640625 -25.609375 C 24.242188 -26.671875 22.503906 -27.203125 20.421875 -27.203125 Z M 20.421875 -27.203125 "/></g></g><g style="fill:rgb(0%,16.079712%,39.99939%);fill-opacity:1;"><g transform="translate(322.925523, 294.616949)"><path style="stroke:none;" d="M 15.09375 0.6875 C 12.75 0.6875 10.523438 0.28125 8.421875 -0.53125 C 6.316406 -1.34375 4.601562 -2.535156 3.28125 -4.109375 L 6.328125 -8.234375 C 7.597656 -7.015625 8.929688 -6.070312 10.328125 -5.40625 C 11.722656 -4.75 13.109375 -4.421875 14.484375 -4.421875 C 16.160156 -4.421875 17.53125 -4.75 18.59375 -5.40625 C 19.664062 -6.070312 20.203125 -7.085938 20.203125 -8.453125 C 20.203125 -9.523438 19.867188 -10.390625 19.203125 -11.046875 C 18.546875 -11.710938 17.796875 -12.195312 16.953125 -12.5 C 16.117188 -12.800781 14.710938 -13.257812 12.734375 -13.875 C 7.347656 -15.601562 4.65625 -18.675781 4.65625 -23.09375 C 4.65625 -25.738281 5.628906 -28 7.578125 -29.875 C 9.535156 -31.757812 12.269531 -32.703125 15.78125 -32.703125 C 18.007812 -32.703125 19.988281 -32.421875 21.71875 -31.859375 C 23.445312 -31.296875 25.050781 -30.40625 26.53125 -29.1875 L 23.703125 -24.84375 C 22.890625 -25.707031 21.859375 -26.394531 20.609375 -26.90625 C 19.367188 -27.414062 18.191406 -27.695312 17.078125 -27.75 C 15.648438 -27.75 14.425781 -27.40625 13.40625 -26.71875 C 12.394531 -26.03125 11.890625 -25.101562 11.890625 -23.9375 C 11.890625 -22.96875 12.21875 -22.164062 12.875 -21.53125 C 13.539062 -20.894531 14.226562 -20.4375 14.9375 -20.15625 C 15.644531 -19.875 17.039062 -19.40625 19.125 -18.75 C 21.71875 -17.882812 23.738281 -16.765625 25.1875 -15.390625 C 26.632812 -14.023438 27.359375 -12.171875 27.359375 -9.828125 C 27.359375 -6.785156 26.289062 -4.269531 24.15625 -2.28125 C 22.019531 -0.300781 19 0.6875 15.09375 0.6875 Z M 15.09375 0.6875 "/></g></g></g></svg>